<svg width="16" height="16" viewBox="0 0 16 16" fill="none" xmlns="http://www.w3.org/2000/svg">
<path d="M10.6666 13.3333V12C10.6666 11.2933 10.3866 10.6133 9.88663 10.1133C9.38663 9.61333 8.70662 9.33333 7.99996 9.33333H3.33329C2.62663 9.33333 1.94663 9.61333 1.44663 10.1133C0.946626 10.6133 0.666626 11.2933 0.666626 12V13.3333" fill="white"/>
<path d="M5.66663 7.33333C7.13996 7.33333 8.33329 6.14 8.33329 4.66667C8.33329 3.19333 7.13996 2 5.66663 2C4.19329 2 2.99996 3.19333 2.99996 4.66667C2.99996 6.14 4.19329 7.33333 5.66663 7.33333Z" fill="white"/>
<path fill-rule="evenodd" clip-rule="evenodd" d="M12.6666 4.66667C13.0348 4.66667 13.3333 4.96515 13.3333 5.33333V9.33333C13.3333 9.70153 13.0348 10 12.6666 10C12.2984 10 12 9.70153 12 9.33333V5.33333C12 4.96515 12.2984 4.66667 12.6666 4.66667Z" fill="white"/>
<path fill-rule="evenodd" clip-rule="evenodd" d="M9.99996 7.33333C9.99996 6.96513 10.2984 6.66667 10.6666 6.66667H14.6666C15.0348 6.66667 15.3333 6.96513 15.3333 7.33333C15.3333 7.70153 15.0348 8 14.6666 8H10.6666C10.2984 8 9.99996 7.70153 9.99996 7.33333Z" fill="white"/>
</svg>
