<svg width="24" height="24" viewBox="0 0 24 24" fill="none" xmlns="http://www.w3.org/2000/svg">
<path fill-rule="evenodd" clip-rule="evenodd" d="M22 18C22 19.1046 21.1046 20 20 20H4C2.89543 20 2 19.1046 2 18V13.5H7.52746C7.77619 15.75 9.68372 17.5 12 17.5C14.3163 17.5 16.2238 15.75 16.4725 13.5H22V18ZM22 12.5H16.4725C16.2238 10.25 14.3163 8.5 12 8.5C9.68372 8.5 7.77619 10.25 7.52746 12.5H2V9C2 7.89543 2.89543 7 4 7V6C4 5.44772 4.44772 5 5 5C5.55228 5 6 5.44772 6 6V7H6.17158C6.70201 7 7.21072 6.78929 7.58579 6.41421L9.41422 4.58579C9.78929 4.21071 10.298 4 10.8284 4H13.1716C13.702 4 14.2107 4.21071 14.5858 4.58579L16.4142 6.41421C16.7893 6.78929 17.298 7 17.8284 7H20C21.1046 7 22 7.89543 22 9V12.5ZM8.5 13C8.5 11.067 10.067 9.5 12 9.5C13.933 9.5 15.5 11.067 15.5 13C15.5 14.933 13.933 16.5 12 16.5C10.067 16.5 8.5 14.933 8.5 13Z" fill="#613BFF"/>
</svg>
