<svg width="20" height="20" viewBox="0 0 20 20" fill="none" xmlns="http://www.w3.org/2000/svg">
<circle cx="10" cy="10" r="10" fill="#E5E9EC" fill-opacity="0.35"/>
<path d="M14.4598 12.1625C14.4574 12.5775 14.2492 12.6701 14.2492 12.6701C14.2492 12.6701 10.6566 14.8196 10.423 14.9543C10.1916 15.0571 10.0369 14.9543 10.0369 14.9543C10.0369 14.9543 6.27772 12.6968 6.14052 12.5976C6.00328 12.4983 6.00004 12.3437 6.00004 12.3437C6.00004 12.3437 6.00384 7.87364 6.00004 7.66665C5.99627 7.45959 6.24576 7.30404 6.24576 7.30404L10.0018 5.05616C10.233 4.9298 10.4581 5.05616 10.4581 5.05616C10.4581 5.05616 13.7762 7.05318 14.1439 7.26783C14.5043 7.44525 14.4598 7.81166 14.4598 7.81166C14.4598 7.81166 14.462 11.7768 14.4598 12.1625ZM12.9602 7.67606C12.1912 7.21776 10.3794 6.13083 10.3794 6.13083C10.3794 6.13083 10.2027 6.03193 10.0211 6.13083L7.07227 7.88999C7.07227 7.88999 6.87637 8.01176 6.87934 8.17378C6.88232 8.33577 6.87934 11.8341 6.87934 11.8341C6.87934 11.8341 6.88186 11.9551 6.98961 12.0328C7.09736 12.1104 10.0487 13.8771 10.0487 13.8771C10.0487 13.8771 10.1702 13.9576 10.3519 13.8771C10.5353 13.7717 13.3559 12.0895 13.3559 12.0895C13.3559 12.0895 13.5194 12.017 13.5213 11.6922C13.5218 11.5986 13.522 11.235 13.5221 10.7782L10.2012 12.8619V12.0648C10.2012 11.7373 10.446 11.5213 10.446 11.5213L13.3833 9.68855C13.4942 9.56869 13.517 9.3767 13.5218 9.30407C13.5217 8.97114 13.5215 8.6803 13.5214 8.49604L10.2012 10.5792V9.74587C10.2012 9.41848 10.411 9.27488 10.411 9.27488L12.9602 7.67606H12.9602Z" fill="#FFAA45" fill-opacity="0.8"/>
</svg>
