<svg width="24" height="24" viewBox="0 0 24 24" fill="none" xmlns="http://www.w3.org/2000/svg">
<path d="M16.6699 14.23C17.4999 15.26 17.9999 16.57 17.9999 18C19.9999 18 21.9999 18 21.9999 18C21.9999 15.79 20.2099 14 17.9999 14C17.5299 14 17.0899 14.08 16.6699 14.23Z" fill="#613BFF"/>
<path d="M17.9999 14C19.1045 14 20 13.1046 20 12C20 10.8954 19.1046 10 18 10C16.8954 10 16 10.8954 16 12C16 13.1046 16.8953 14 17.9999 14Z" fill="#613BFF"/>
<path d="M7.33 14.23C6.91 14.08 6.47 14 6 14C3.79 14 2 15.79 2 18C2 18 4 18 6 18C6 16.57 6.5 15.26 7.33 14.23Z" fill="#613BFF"/>
<path d="M6 14C7.10457 14 8 13.1046 8 12C8 10.8954 7.10457 10 6 10C4.89543 10 4 10.8954 4 12C4 13.1046 4.89543 14 6 14Z" fill="#613BFF"/>
<path d="M12 12C8.69 12 6 14.69 6 18C6.01 18 17.9999 18 17.9999 18C17.9999 14.69 15.31 12 12 12Z" fill="#613BFF"/>
<path d="M12 12C13.6569 12 15 10.6569 15 9C15 7.34315 13.6569 6 12 6C10.3431 6 9 7.34315 9 9C9 10.6569 10.3431 12 12 12Z" fill="#613BFF"/>
</svg>
