<svg width="10" height="8" viewBox="0 0 10 8" fill="none" xmlns="http://www.w3.org/2000/svg">
<path d="M8.29468 1.91943H7.0045L6.69713 1.05805C6.6759 0.999108 6.63698 0.948158 6.58571 0.912162C6.53443 0.876166 6.47329 0.856878 6.41064 0.856934H3.50015C3.37208 0.856934 3.25729 0.93757 3.2146 1.05805L2.90628 1.91943H1.61611C1.1968 1.91943 0.857178 2.25905 0.857178 2.67836V7.00425C0.857178 7.42356 1.1968 7.76318 1.61611 7.76318H8.29468C8.71399 7.76318 9.05361 7.42356 9.05361 7.00425V2.67836C9.05361 2.25905 8.71399 1.91943 8.29468 1.91943ZM4.95539 6.24533C4.11678 6.24533 3.43753 5.56608 3.43753 4.72747C3.43753 3.88885 4.11678 3.20961 4.95539 3.20961C5.79401 3.20961 6.47325 3.88885 6.47325 4.72747C6.47325 5.56608 5.79401 6.24533 4.95539 6.24533ZM4.04468 4.72747C4.04468 4.969 4.14063 5.20065 4.31142 5.37144C4.48221 5.54223 4.71386 5.63818 4.95539 5.63818C5.19693 5.63818 5.42857 5.54223 5.59936 5.37144C5.77016 5.20065 5.86611 4.969 5.86611 4.72747C5.86611 4.48593 5.77016 4.25429 5.59936 4.0835C5.42857 3.9127 5.19693 3.81675 4.95539 3.81675C4.71386 3.81675 4.48221 3.9127 4.31142 4.0835C4.14063 4.25429 4.04468 4.48593 4.04468 4.72747Z" fill="#083525"/>
</svg>