<svg width="16" height="16" viewBox="0 0 16 16" fill="none" xmlns="http://www.w3.org/2000/svg">
<path d="M3.63663 8.99992L0.666626 11.3333V0.999919C0.666626 0.823108 0.736864 0.653538 0.861888 0.528514C0.986912 0.40349 1.15648 0.333252 1.33329 0.333252H11.3333C11.5101 0.333252 11.6797 0.40349 11.8047 0.528514C11.9297 0.653538 12 0.823108 12 0.999919V8.99992H3.63663ZM3.17529 7.66659H10.6666V1.66659H1.99996V8.58992L3.17529 7.66659ZM5.33329 10.3333H12.158L13.3333 11.2566V4.33325H14C14.1768 4.33325 14.3463 4.40349 14.4714 4.52851C14.5964 4.65354 14.6666 4.82311 14.6666 4.99992V13.9999L11.6966 11.6666H5.99996C5.82315 11.6666 5.65358 11.5963 5.52856 11.4713C5.40353 11.3463 5.33329 11.1767 5.33329 10.9999V10.3333Z" fill="#5B5B5B"/>
</svg>
