<svg width="10" height="10" viewBox="0 0 10 10" fill="none" xmlns="http://www.w3.org/2000/svg">
<path d="M5.00001 0C7.76144 0 10 2.23859 10 5.00001C10 7.76144 7.76144 10 5.00001 10C2.23859 10 0 7.76144 0 5.00001C0 2.23859 2.23859 0 5.00001 0Z" fill="#F4B844"/>
<path d="M4.99999 8.7678C7.08096 8.7678 8.76793 7.08084 8.76793 4.99987C8.76793 2.9189 7.08096 1.23193 4.99999 1.23193C2.91902 1.23193 1.23206 2.9189 1.23206 4.99987C1.23206 7.08084 2.91902 8.7678 4.99999 8.7678Z" fill="#FEDB41"/>
<path d="M5.00001 4.62942C4.64327 4.62942 4.35408 4.34023 4.35408 3.9835C4.35408 3.62676 4.64327 3.33757 5.00001 3.33757C5.35675 3.33757 5.64594 3.62676 5.64594 3.9835C5.64594 4.11563 5.75304 4.22273 5.88517 4.22273C6.0173 4.22273 6.12441 4.11563 6.12441 3.9835C6.11967 3.4585 5.75224 3.00666 5.23924 2.89497V2.60789C5.23924 2.47576 5.13214 2.36865 5.00001 2.36865C4.86788 2.36865 4.76077 2.47576 4.76077 2.60789V2.89497C4.15922 3.04908 3.79648 3.6617 3.95062 4.26326C4.07439 4.74637 4.50162 5.09022 5.00001 5.10789C5.35675 5.10789 5.64594 5.39709 5.64594 5.75382C5.64594 6.11056 5.35675 6.39975 5.00001 6.39975C4.64327 6.39975 4.35408 6.11056 4.35408 5.75382C4.35408 5.62169 4.24698 5.51459 4.11485 5.51459C3.98272 5.51459 3.87561 5.62169 3.87561 5.75382C3.87584 6.28044 4.24528 6.73476 4.76077 6.84234V7.27296C4.76077 7.40509 4.86788 7.5122 5.00001 7.5122C5.13214 7.5122 5.23924 7.40509 5.23924 7.27296V6.84234C5.8408 6.68823 6.20354 6.07562 6.0494 5.47406C5.92563 4.99094 5.4984 4.64708 5.00001 4.62942Z" fill="#F4B844"/>
</svg>
