<svg width="7" height="11" viewBox="0 0 7 11" fill="none" xmlns="http://www.w3.org/2000/svg">
<path d="M4.04167 10.9169H2.41667V9.29186H4.04167V10.9169ZM4.04167 8.20853H2.41667V8.20473C2.41667 7.31098 2.41667 6.53911 2.78067 5.99853C3.06386 5.63962 3.41622 5.34122 3.81688 5.12103C3.99779 5.00511 4.16842 4.89515 4.31196 4.78086C4.94104 4.29394 5.22389 3.48191 5.03346 2.70953C4.73214 1.98919 3.96544 1.58047 3.19943 1.7318C2.43342 1.88314 1.87975 2.55272 1.875 3.33353H0.25C0.25 1.5386 1.70507 0.0835108 3.5 0.0835108C4.74868 0.0797741 5.89061 0.787121 6.44342 1.90678C6.93996 3.0476 6.74367 4.37159 5.9375 5.31928C5.6924 5.5909 5.41728 5.83386 5.11742 6.04348C4.85503 6.22447 4.61565 6.43674 4.40458 6.67561C4.10628 7.12765 3.97771 7.67072 4.04167 8.20853Z" fill="#EB5757"/>
</svg>
