<svg width="440" height="513" viewBox="0 0 440 513" fill="none" xmlns="http://www.w3.org/2000/svg">
<rect y="50" width="440" height="389" rx="30" fill="url(#paint0_radial)"/>
<g style="mix-blend-mode:overlay" opacity="0.4">
<rect x="12.6461" y="129.646" width="144" height="144" transform="rotate(-30 12.6461 129.646)" fill="white"/>
</g>
<g style="mix-blend-mode:overlay" opacity="0.4">
<path d="M148.548 282.299L148.548 413.612L34.8272 347.955L148.548 282.299Z" fill="white"/>
</g>
<g style="mix-blend-mode:overlay" opacity="0.4">
<path d="M346 210L366.682 254.534L415.427 260.442L379.464 293.873L388.908 342.058L346 318.186L303.092 342.058L312.536 293.873L276.573 260.442L325.318 254.534L346 210Z" fill="white"/>
</g>
<g style="mix-blend-mode:overlay" opacity="0.4">
<circle cx="351.5" cy="125.5" r="55.5" fill="white"/>
</g>
<g filter="url(#filter0_d)">
<path fill-rule="evenodd" clip-rule="evenodd" d="M120 60.1123C120 46.7954 130.795 36 144.112 36H295.888C309.205 36 320 46.7954 320 60.1123V428.403C320 441.72 309.205 452.515 295.888 452.515H144.112C130.795 452.515 120 441.72 120 428.403V60.1123Z" fill="#070707"/>
</g>
<path d="M297.027 43.1016C288.648 43.1016 274.724 43.1016 273.898 43.1016C271.892 43.1016 270.594 44.589 270.122 47.2663C268.529 56.7856 263.337 57.4401 261.803 57.4401C260.505 57.4401 179.554 57.4401 178.197 57.4401C176.663 57.4401 171.412 56.7262 169.878 47.2663C169.465 44.589 168.167 43.1016 166.102 43.1016C165.217 43.1016 151.351 43.1016 142.973 43.1016C134.595 43.1016 127.102 52.026 127.102 60.5339C127.102 69.0418 127.102 419.057 127.102 429.171C127.102 439.702 137.722 445.414 142.796 445.414C145.569 445.414 294.431 445.414 297.204 445.414C302.278 445.414 312.898 439.702 312.898 429.171C312.898 419.057 312.898 65.3531 312.898 60.5339C312.957 52.026 305.405 43.1016 297.027 43.1016Z" fill="#1D1D1D"/>
<g filter="url(#filter1_d)">
<rect x="261" y="301" width="120" height="120" rx="32" fill="white"/>
</g>
<path fill-rule="evenodd" clip-rule="evenodd" d="M327.5 381C327.5 379.752 328.502 378.75 329.75 378.75H352.25C353.498 378.75 354.5 379.752 354.5 381C354.5 382.248 353.498 383.25 352.25 383.25H329.75C328.502 383.25 327.5 382.248 327.5 381Z" fill="#CC2229"/>
<path fill-rule="evenodd" clip-rule="evenodd" d="M341 383.25H352.25C353.498 383.25 354.5 382.248 354.5 381C354.5 379.752 353.498 378.75 352.25 378.75H341V383.25Z" fill="#25B4F4"/>
<path d="M341 327L354.856 351H327.144L341 327Z" fill="#F9DC30"/>
<path fill-rule="evenodd" clip-rule="evenodd" d="M354.856 351L341 327V351H354.856Z" fill="#DB812E"/>
<circle cx="301" cy="381" r="12" fill="#0094D6"/>
<path fill-rule="evenodd" clip-rule="evenodd" d="M309.485 389.485C314.172 384.799 314.172 377.201 309.485 372.515L292.515 389.485C297.201 394.172 304.799 394.172 309.485 389.485Z" fill="#33348E"/>
<path fill-rule="evenodd" clip-rule="evenodd" d="M289.5 343C289.5 341.752 290.502 340.75 291.75 340.75H314.25C315.498 340.75 316.5 341.752 316.5 343C316.5 344.248 315.498 345.25 314.25 345.25H291.75C290.502 345.25 289.5 344.248 289.5 343Z" fill="#772C8C"/>
<path fill-rule="evenodd" clip-rule="evenodd" d="M300.75 331.75C300.75 330.502 301.751 329.5 303 329.5C304.248 329.5 305.25 330.502 305.25 331.75V354.25C305.25 355.498 304.248 356.5 303 356.5C301.751 356.5 300.75 355.498 300.75 354.25V331.75Z" fill="#33A457"/>
<path d="M49.2736 130.523L49.2994 130.542L49.3256 130.56C51.2745 131.893 53.5613 132.5 56.0578 132.5C58.5838 132.5 60.8939 131.914 62.754 130.503C64.7316 129.063 65.8446 127.027 65.8446 124.564V115.845H74.4482C76.828 115.845 78.768 114.672 80.2126 112.831C81.781 110.932 82.5 108.616 82.5 106.058C82.5 103.549 81.7671 101.27 80.2529 99.3365C78.8315 97.4233 76.8859 96.1554 74.4482 96.1554H65.8446V87.5518C65.8446 85.172 64.6723 83.232 62.8306 81.7874C60.9321 80.219 58.616 79.5 56.0578 79.5C53.5495 79.5 51.2696 80.2329 49.3365 81.7471C47.4233 83.1684 46.1554 85.1141 46.1554 87.5518V96.1554H37.4361C34.9132 96.1554 32.8734 97.3619 31.4584 99.415C30.0999 101.309 29.5 103.577 29.5 106.058C29.5 108.604 30.0947 110.928 31.4769 112.842L31.4969 112.87L31.5177 112.897C32.9825 114.812 35.0209 115.845 37.4361 115.845H46.1554V124.564C46.1554 127.038 47.2787 129.082 49.2736 130.523Z" fill="#FF3EA8" stroke="white" stroke-width="5"/>
<path d="M91.5829 383.349L91.6029 383.377L91.6236 383.404C93.1592 385.417 95.2917 386.5 97.8254 386.5H130.051C132.538 386.5 134.569 385.274 136.09 383.329C137.74 381.328 138.5 378.884 138.5 376.173C138.5 373.517 137.727 371.109 136.13 369.068C134.633 367.046 132.596 365.721 130.051 365.721H97.8254C95.1838 365.721 93.05 366.985 91.5644 369.146C90.1351 371.143 89.5 373.539 89.5 376.173C89.5 378.878 90.13 381.333 91.5829 383.349ZM91.5829 358.128L91.6029 358.156L91.6236 358.183C93.1592 360.196 95.2917 361.279 97.8254 361.279H130.051C132.538 361.279 134.569 360.052 136.09 358.108C137.74 356.107 138.5 353.662 138.5 350.952C138.5 348.296 137.727 345.888 136.13 343.846C134.633 341.825 132.596 340.5 130.051 340.5H97.8254C95.1838 340.5 93.05 341.763 91.5644 343.925C90.1351 345.922 89.5 348.318 89.5 350.952C89.5 353.657 90.13 356.112 91.5829 358.128Z" fill="#FF3EA8" stroke="white" stroke-width="5"/>
<path d="M351.573 211.306L351.593 211.334L351.613 211.361C353.143 213.395 355.277 214.5 357.825 214.5H390.051C392.553 214.5 394.586 213.249 396.101 211.285C397.745 209.262 398.5 206.797 398.5 204.063C398.5 201.386 397.732 198.957 396.14 196.893C394.649 194.852 392.611 193.5 390.051 193.5H357.825C355.168 193.5 353.034 194.789 351.555 196.971C350.132 198.988 349.5 201.405 349.5 204.063C349.5 206.794 350.127 209.27 351.573 211.306Z" fill="#FF3EA8" stroke="white" stroke-width="5"/>
<defs>
<filter id="filter0_d" x="72" y="0" width="296" height="512.515" filterUnits="userSpaceOnUse" color-interpolation-filters="sRGB">
<feFlood flood-opacity="0" result="BackgroundImageFix"/>
<feColorMatrix in="SourceAlpha" type="matrix" values="0 0 0 0 0 0 0 0 0 0 0 0 0 0 0 0 0 0 127 0"/>
<feOffset dy="12"/>
<feGaussianBlur stdDeviation="24"/>
<feColorMatrix type="matrix" values="0 0 0 0 0 0 0 0 0 0 0 0 0 0 0 0 0 0 0.4 0"/>
<feBlend mode="normal" in2="BackgroundImageFix" result="effect1_dropShadow"/>
<feBlend mode="normal" in="SourceGraphic" in2="effect1_dropShadow" result="shape"/>
</filter>
<filter id="filter1_d" x="227" y="301" width="188" height="192" filterUnits="userSpaceOnUse" color-interpolation-filters="sRGB">
<feFlood flood-opacity="0" result="BackgroundImageFix"/>
<feColorMatrix in="SourceAlpha" type="matrix" values="0 0 0 0 0 0 0 0 0 0 0 0 0 0 0 0 0 0 127 0"/>
<feMorphology radius="12" operator="erode" in="SourceAlpha" result="effect1_dropShadow"/>
<feOffset dy="38"/>
<feGaussianBlur stdDeviation="23"/>
<feColorMatrix type="matrix" values="0 0 0 0 0 0 0 0 0 0 0 0 0 0 0 0 0 0 0.25 0"/>
<feBlend mode="normal" in2="BackgroundImageFix" result="effect1_dropShadow"/>
<feBlend mode="normal" in="SourceGraphic" in2="effect1_dropShadow" result="shape"/>
</filter>
<radialGradient id="paint0_radial" cx="0" cy="0" r="1" gradientUnits="userSpaceOnUse" gradientTransform="translate(219.998 438.999) rotate(-90) scale(388.999 49962.9)">
<stop stop-color="#413ECF"/>
<stop offset="1" stop-color="#C964ED"/>
</radialGradient>
</defs>
</svg>
