<svg width="120" height="120" viewBox="0 0 120 120" fill="none" xmlns="http://www.w3.org/2000/svg">
<circle opacity="0.1" cx="60" cy="60" r="60" fill="#35A6B8"/>
<path d="M54.032 94.824C54.384 93.592 54.736 92.248 55.04 90.952H55.12C55.456 92.232 55.776 93.592 56.144 94.824L56.496 96.12H53.68L54.032 94.824ZM49.936 101H52.336L53.168 97.96H57.008L57.84 101H60.32L56.512 89.144H53.728L49.936 101ZM61.706 101H64.074V96.52H65.722L68.154 101H70.794L68.026 96.152C69.386 95.624 70.282 94.52 70.282 92.744C70.282 90.024 68.314 89.144 65.834 89.144H61.706V101ZM64.074 94.648V91.032H65.61C67.13 91.032 67.978 91.464 67.978 92.744C67.978 94.008 67.13 94.648 65.61 94.648H64.074Z" fill="#00A5BF"/>
<path d="M79.3388 47.5305C79.5634 47.6398 79.7552 47.8213 79.8755 48.062C79.8813 48.0735 79.8868 48.085 79.8921 48.0965C79.9038 48.1219 79.9146 48.1477 79.9244 48.1739C79.9787 48.318 80.0028 48.466 79.9997 48.6118V56.8233C79.9997 57.473 79.473 57.9997 78.8233 57.9997C78.1735 57.9997 77.6468 57.473 77.6468 56.8233V50.4916L72.2907 53.1697C71.7095 53.4603 71.0029 53.2247 70.7123 52.6436C70.4217 52.0624 70.6573 51.3558 71.2384 51.0652L76.1926 48.5881L71.2384 46.111C70.6573 45.8204 70.4217 45.1138 70.7123 44.5326C71.0029 43.9515 71.7095 43.7159 72.2907 44.0065L79.3388 47.5305ZM79.9997 72.0935C80.0034 72.2663 79.9689 72.4422 79.8921 72.6088C79.8345 72.734 79.7552 72.8485 79.6576 72.9467C79.5585 73.0451 79.4529 73.1193 79.3388 73.1748L72.2907 76.6988C71.7095 76.9894 71.0029 76.7538 70.7123 76.1727C70.4217 75.5916 70.6573 74.8849 71.2384 74.5943L76.1926 72.1172L71.2384 69.6401C70.6573 69.3495 70.4217 68.6429 70.7123 68.0617C71.0029 67.4806 71.7095 67.245 72.2907 67.5356L77.6468 70.2137V63.882C77.6468 63.2323 78.1735 62.7056 78.8233 62.7056C79.473 62.7056 79.9997 63.2323 79.9997 63.882V72.0935ZM43.8073 72.1172L48.7616 74.5943C49.3427 74.8849 49.5783 75.5916 49.2877 76.1727C48.9971 76.7538 48.2905 76.9894 47.7093 76.6988L40.6612 73.1748C40.4366 73.0655 40.2448 72.8841 40.1245 72.6433C40.1187 72.6319 40.1132 72.6203 40.1079 72.6088C40.0962 72.5834 40.0854 72.5576 40.0756 72.5314C40.0213 72.3873 39.9972 72.2393 40.0003 72.0935V63.882C40.0003 63.2323 40.527 62.7056 41.1767 62.7056C41.8265 62.7056 42.3532 63.2323 42.3532 63.882V70.2137L47.7093 67.5356C48.2905 67.245 48.9971 67.4806 49.2877 68.0617C49.5783 68.6429 49.3427 69.3495 48.7616 69.6401L43.8073 72.1172ZM42.3532 50.4916V56.8233C42.3532 57.473 41.8265 57.9997 41.1767 57.9997C40.527 57.9997 40.0003 57.473 40.0003 56.8233V48.6118C39.9966 48.439 40.0311 48.2632 40.1079 48.0965C40.1655 47.9713 40.2448 47.8568 40.3424 47.7586C40.4415 47.6602 40.5471 47.586 40.6612 47.5305L47.7093 44.0065C48.2905 43.7159 48.9971 43.9515 49.2877 44.5326C49.5783 45.1138 49.3427 45.8204 48.7616 46.111L43.8073 48.5881L48.7616 51.0652C49.3427 51.3558 49.5783 52.0624 49.2877 52.6436C48.9971 53.2247 48.2905 53.4603 47.7093 53.1697L42.3532 50.4916ZM59.4527 38.1348C59.6162 38.0487 59.8024 38 60 38C60.1976 38 60.3838 38.0487 60.5473 38.1348L67.5849 41.6536C68.166 41.9441 68.4016 42.6508 68.111 43.2319C67.8204 43.8131 67.1137 44.0486 66.5326 43.7581L61.1765 41.08V47.4116C61.1765 48.0614 60.6497 48.5881 60 48.5881C59.3503 48.5881 58.8235 48.0614 58.8235 47.4116V41.08L53.4674 43.7581C52.8863 44.0486 52.1796 43.8131 51.889 43.2319C51.5984 42.6508 51.834 41.9441 52.4151 41.6536L59.4527 38.1348ZM60.5473 82.5705C60.3838 82.6566 60.1976 82.7053 60 82.7053C59.8024 82.7053 59.6162 82.6566 59.4527 82.5705L52.4151 79.0517C51.834 78.7612 51.5984 78.0545 51.889 77.4734C52.1796 76.8922 52.8863 76.6567 53.4674 76.9472L58.8235 79.6253V73.2937C58.8235 72.6439 59.3503 72.1172 60 72.1172C60.6497 72.1172 61.1765 72.6439 61.1765 73.2937V79.6253L66.5326 76.9472C67.1137 76.6567 67.8204 76.8922 68.111 77.4734C68.4016 78.0545 68.166 78.7612 67.5849 79.0517L60.5473 82.5705ZM61.1765 58.7268V65.0585C61.1765 65.7082 60.6497 66.2349 60 66.2349C59.3503 66.2349 58.8235 65.7082 58.8235 65.0585V58.7268L52.4151 55.5226C51.834 55.2321 51.5984 54.5254 51.889 53.9442C52.1796 53.3631 52.8863 53.1276 53.4674 53.4181L60 56.6844L66.5326 53.4181C67.1137 53.1276 67.8204 53.3631 68.111 53.9442C68.4016 54.5254 68.166 55.2321 67.5849 55.5226L61.1765 58.7268Z" fill="#00A5BF"/>
</svg>
