<svg width="16" height="20" viewBox="0 0 16 20" fill="none" xmlns="http://www.w3.org/2000/svg">
<path fill-rule="evenodd" clip-rule="evenodd" d="M8 0H8.01C11.71 0 14.88 2.95 15 6.51C15.03 7.6 14.71 8.79 14.26 9.71C14.26 9.71 14.25 9.72 14.25 9.73L8.88 19.49C8.7 19.83 8.35 20 8 20C7.65 20 7.3 19.83 7.12 19.49L1.74999 9.73C1.74999 9.72 1.73999 9.71 1.73999 9.71C1.28999 8.79 0.969993 7.6 0.999993 6.51C1.11999 2.95 4.28999 0 7.99 0H8ZM10.5 7C10.5 8.3807 9.3807 9.5 8 9.5C6.6193 9.5 5.5 8.3807 5.5 7C5.5 5.61929 6.6193 4.5 8 4.5C9.3807 4.5 10.5 5.61929 10.5 7Z" fill="white"/>
</svg>
