<svg width="137" height="36" viewBox="0 0 137 36" fill="none" xmlns="http://www.w3.org/2000/svg">
<path d="M0 32.9733H7.46624C9.48118 32.9733 10.5996 32.2075 10.8216 30.6758C11.0227 29.225 10.0759 27.9856 7.98017 26.9578C7.65753 26.7968 6.86648 26.4091 5.60725 25.794C4.34754 25.1796 3.34486 24.6 2.59956 24.0559C1.85379 23.5119 1.26431 22.8822 0.831251 22.1668C0.397714 21.4516 0.181359 20.6303 0.181359 19.7031C0.181359 18.5951 0.448197 17.6429 0.982344 16.8466C1.51614 16.0507 2.19157 15.4513 3.00768 15.0479C3.8238 14.6452 4.65505 14.4434 5.50143 14.4434H12.7562V17.1035H5.50143C4.71558 17.1035 4.10577 17.3406 3.67259 17.8139C3.23905 18.2876 3.00248 18.877 2.96228 19.5823C3.0227 20.4286 3.35527 21.0535 3.95988 21.4564C4.66498 21.9807 5.36027 22.4086 6.04563 22.741C6.73052 23.0735 7.35014 23.3711 7.90463 23.6327C8.45863 23.8949 9.11846 24.2174 9.88457 24.6C12.5644 26.1718 13.8241 28.0362 13.663 30.1924C13.663 31.603 13.1946 32.8674 12.2574 33.9859C11.3203 35.1043 9.79389 35.6531 7.67787 35.6333H0V32.9733Z" fill="black"/>
<path d="M15.847 14.4434H18.6885V28.439C18.6885 30.1724 19.0861 31.4217 19.8825 32.1872C20.6784 32.9534 21.6706 33.3359 22.8599 33.3359C24.1494 33.3359 25.162 32.8522 25.8978 31.885C26.6332 30.9177 27.0012 29.8597 27.0012 28.7111V14.4434H29.8426V28.4994C29.8426 30.7969 29.137 32.6257 27.7266 33.9859C26.3159 35.3461 24.6533 35.996 22.7391 35.9356C20.7842 35.8949 19.1466 35.2154 17.827 33.8952C16.5069 32.5755 15.847 30.8474 15.847 28.7111V14.4434Z" fill="black"/>
<path d="M33.1891 14.4434H36.0305V23.3607H38.5697C39.4161 23.381 40.0961 23.0839 40.61 22.4689C41.124 21.8546 41.6227 20.9931 42.1063 19.8846L44.5851 14.4434H47.7892L44.7664 21.003C44.5851 21.507 44.2776 22.041 43.8445 22.6051C43.4108 23.1695 42.9325 23.5723 42.4086 23.8141C45.3304 24.6204 46.7916 26.5752 46.7916 29.6784V35.6333H43.8898L43.9502 29.5574C43.9502 28.429 43.5975 27.5424 42.8923 26.8974C42.1867 26.2526 41.1188 25.9603 39.6881 26.0206H36.0305V35.6333H33.1891V14.4434Z" fill="black"/>
<path d="M51.8097 24.6645C51.6889 26.942 52.4091 28.937 53.9711 30.6497C55.5325 32.3627 57.4926 33.2795 59.8504 33.4004C60.7974 33.4409 61.9059 33.1841 63.1754 32.6296C64.445 32.0756 65.5584 31.1588 66.5156 29.8787C67.4726 28.5994 67.9614 26.992 67.9818 25.0573C68.022 23.6669 67.7097 22.3219 67.0447 21.022C66.3797 19.7221 65.4171 18.6846 64.1578 17.9084C62.8983 17.133 61.4421 16.7448 59.79 16.7448C58.3588 16.7448 57.034 17.1075 55.8148 17.833C54.5953 18.5584 53.6234 19.5309 52.898 20.7501C52.1724 21.9694 51.8097 23.2739 51.8097 24.6645ZM48.787 24.6645C48.8067 23.1532 49.1194 21.7678 49.7239 20.5082C50.3285 19.249 51.1598 18.1404 52.2178 17.183C53.2758 16.226 54.4395 15.4752 55.7091 14.9311C56.9787 14.3869 58.2582 14.1051 59.5482 14.0846C61.1804 14.0242 62.8581 14.377 64.5811 15.1426C66.3041 15.9087 67.7597 17.1277 68.949 18.8002C70.1379 20.4732 70.8029 22.5183 70.9442 24.9365C71.0243 26.6496 70.5965 28.3778 69.6594 30.1206C68.7223 31.864 67.4074 33.2795 65.7145 34.3677C64.0219 35.4558 62.1372 36 60.062 36H60.0317C58.0768 35.9593 56.2429 35.4913 54.5303 34.5943C52.8172 33.698 51.432 32.3981 50.3738 30.6951C49.3159 28.9921 48.787 26.9822 48.787 24.6645Z" fill="black"/>
<path d="M87.8731 35.6315L87.9336 21.5754C87.9941 20.1245 88.3416 18.8247 88.9765 17.676C89.6114 16.5273 90.4525 15.6357 91.5007 15.0008C92.5481 14.366 93.7172 14.059 95.007 14.0789C96.3773 14.0789 97.6217 14.3916 98.7401 15.0159C99.8587 15.6408 100.735 16.5627 101.37 17.7817C102.005 19.0014 102.332 20.4871 102.353 22.2404V35.6315H99.5111V26.0188H91.8935V23.2985H99.5111C99.6319 21.1423 99.3092 19.5101 98.5438 18.4015C97.7775 17.2935 96.6591 16.739 95.1884 16.739H95.1278C93.5759 16.739 92.4625 17.258 91.7876 18.2957C91.1122 19.3337 90.775 20.4268 90.775 21.5754V35.6315H87.8731Z" fill="black"/>
<path d="M105.464 14.4434H108.306V23.3607H110.845C111.691 23.381 112.371 23.0839 112.885 22.4689C113.399 21.8546 113.898 20.9931 114.382 19.8846L116.86 14.4434H120.064L117.042 21.003C116.86 21.507 116.553 22.041 116.12 22.6051C115.686 23.1695 115.208 23.5723 114.684 23.8141C117.606 24.6204 119.067 26.5752 119.067 29.6784V35.6333H116.165L116.225 29.5574C116.225 28.429 115.873 27.5424 115.168 26.8974C114.462 26.2526 113.394 25.9603 111.963 26.0206H108.306V35.6333H105.464V14.4434Z" fill="black"/>
<path d="M121.544 35.6315L121.604 21.5754C121.665 20.1245 122.012 18.8247 122.647 17.676C123.282 16.5273 124.123 15.6357 125.171 15.0008C126.219 14.366 127.388 14.059 128.678 14.0789C130.048 14.0789 131.292 14.3916 132.411 15.0159C133.529 15.6408 134.406 16.5627 135.041 17.7817C135.676 19.0014 136.003 20.4871 136.023 22.2404V35.6315H133.182V26.0188H125.564V23.2985H133.182C133.303 21.1423 132.98 19.5101 132.214 18.4015C131.448 17.2935 130.33 16.739 128.859 16.739H128.799C127.247 16.739 126.133 17.258 125.458 18.2957C124.783 19.3337 124.446 20.4268 124.446 21.5754V35.6315H121.544Z" fill="black"/>
<path d="M70.1743 9.19968C72.567 12.9404 75.9537 13.9766 75.9537 13.9766L76.896 13.5057C76.896 13.5057 78.024 9.12307 75.3794 5.73529C73.3921 3.1894 69.2496 1.44615 69.2496 1.44615C69.2496 1.44615 67.8233 5.52437 70.1743 9.19968ZM76.9377 15.5954C76.9377 15.5954 71.9331 14.1159 69.1462 9.7557C66.4205 5.49138 68.2709 0 68.2709 0C68.2709 0 74.1575 1.65943 77.0807 5.49044C80.0038 9.32157 77.775 14.9925 77.775 14.9925L76.9377 15.5954Z" fill="#96C152"/>
<path d="M88.1086 1.44615C88.1086 1.44615 83.9659 3.1894 81.9787 5.73529C79.3342 9.12307 80.462 13.5057 80.462 13.5057L81.4045 13.9766C81.4045 13.9766 84.7909 12.9404 87.1838 9.19968C89.5348 5.52437 88.1086 1.44615 88.1086 1.44615ZM79.5832 14.9925C79.5832 14.9925 77.3544 9.32157 80.2775 5.49044C83.2006 1.65943 89.0872 0 89.0872 0C89.0872 0 90.9376 5.49138 88.2118 9.7557C85.425 14.1159 80.4205 15.5954 80.4205 15.5954L79.5832 14.9925Z" fill="#96C152"/>
<path d="M78.8904 33.6694C78.5184 33.6694 78.2169 33.971 78.2169 34.343C78.2169 34.715 78.5184 35.0166 78.8904 35.0166C79.2623 35.0166 79.5639 34.715 79.5639 34.343C79.5639 33.971 79.2623 33.6694 78.8904 33.6694ZM83.5499 32.0199V20.8393C83.5499 20.02 83.8675 18.304 81.8389 18.5985C81.8389 18.5985 76.2771 19.2509 75.4352 19.3497C74.5932 19.4484 74.0039 20.02 74.0039 20.8393L74.1151 31.7964C74.1151 32.9569 75.1752 33.5094 75.9624 33.5094H82.1188C82.9059 33.5094 83.5499 32.8391 83.5499 32.0199ZM83.0573 35.2389H75.1672C74.1583 35.2389 72.7997 34.5585 72.7997 33.1295L72.6572 19.6361C72.6572 18.6272 73.4125 17.9234 74.4915 17.8018C75.5706 17.6801 82.6988 16.8768 82.6988 16.8768C85.2985 16.5142 84.8915 18.6272 84.8915 19.6361V33.4047C84.8915 34.4136 84.0661 35.2389 83.0573 35.2389Z" fill="#96C152"/>
<path d="M78.2096 33.5115L78.0735 17.7952C78.0735 17.6649 78.03 17.513 77.9865 17.4477L72.5576 8.3056H73.9259C75.4459 10.8897 78.0951 15.3848 78.7467 16.514C79.3981 15.3848 82.0692 10.9332 83.6977 8.3056H85.0006L79.3329 17.5347C79.2896 17.6215 79.2678 17.7084 79.2678 17.8604L79.5571 33.5115H78.2096Z" fill="black"/>
</svg>
