<svg width="120" height="120" viewBox="0 0 120 120" fill="none" xmlns="http://www.w3.org/2000/svg">
<circle opacity="0.1" cx="60" cy="60" r="60" fill="#35A6B8"/>
<path d="M56.56 92.12C56.384 93.512 56.112 94.76 55.712 95.848C55.28 94.696 54.96 93.448 54.736 92.12H56.56ZM50.448 94.008H49.52C49.76 93.752 49.984 93.48 50.208 93.208H52.112C51.872 93.64 51.616 94.024 51.344 94.36L50.784 93.912L50.448 94.008ZM48.72 90.504H49.968C49.744 90.872 49.504 91.224 49.248 91.576H48.72V90.504ZM59.472 92.12V90.36H55.216C55.44 89.512 55.616 88.632 55.776 87.736L53.856 87.448C53.568 89.336 53.088 91.176 52.384 92.664V91.576H51.376C52.016 90.568 52.576 89.496 53.04 88.328L51.28 87.832C50.992 88.584 50.656 89.32 50.272 89.992V88.904H48.72V87.448H46.944V88.904H45.136V90.504H46.944V91.576H44.608V93.208H47.824C47.536 93.48 47.248 93.752 46.944 94.008H45.92V94.776C45.392 95.128 44.832 95.464 44.24 95.752C44.624 96.104 45.264 96.84 45.52 97.208C46.4 96.712 47.216 96.136 48 95.48H49.136C48.864 95.768 48.576 96.04 48.304 96.28H47.68V97.528C46.48 97.624 45.376 97.704 44.48 97.768L44.672 99.464C45.552 99.384 46.576 99.288 47.68 99.192V100.552C47.68 100.728 47.616 100.776 47.408 100.792C47.216 100.792 46.512 100.792 45.904 100.776C46.128 101.224 46.368 101.896 46.448 102.392C47.44 102.392 48.176 102.376 48.752 102.12C49.328 101.848 49.472 101.416 49.472 100.6V99.032C50.432 98.952 51.408 98.872 52.368 98.776V97.144C51.408 97.224 50.432 97.32 49.472 97.384V97.064C50.256 96.44 51.072 95.624 51.712 94.872C52.112 95.192 52.56 95.608 52.768 95.848C53.024 95.512 53.264 95.144 53.504 94.744C53.792 95.928 54.144 97.016 54.592 97.992C53.76 99.16 52.656 100.056 51.152 100.728C51.504 101.128 52.064 102.008 52.24 102.456C53.632 101.752 54.736 100.888 55.616 99.832C56.336 100.888 57.216 101.752 58.32 102.408C58.608 101.88 59.2 101.128 59.632 100.744C58.448 100.136 57.52 99.208 56.8 98.072C57.648 96.44 58.192 94.488 58.528 92.12H59.472ZM64.976 98.552V97.784H71.04V98.552H64.976ZM71.04 95.72V96.488H64.976V95.72H71.04ZM72.976 94.184H63.072V102.392H64.976V99.864H71.04V100.6C71.04 100.824 70.96 100.904 70.672 100.904C70.432 100.92 69.408 100.92 68.64 100.872C68.848 101.304 69.104 101.928 69.2 102.392C70.496 102.392 71.44 102.376 72.096 102.152C72.752 101.912 72.976 101.512 72.976 100.616V94.184ZM70.448 90.472L69.68 90.936C70.016 91.176 70.368 91.448 70.72 91.736C69.04 91.768 67.376 91.784 65.824 91.816C66.192 91.384 66.576 90.92 66.928 90.472H70.448ZM75.072 90.472V88.808H68.96V87.448H67.008V88.808H60.896V90.472H64.528C64.272 90.92 63.984 91.4 63.68 91.832L61.456 91.864L61.504 93.576C64.304 93.512 68.48 93.4 72.464 93.256C72.848 93.624 73.184 93.976 73.424 94.28L75.104 93.208C74.4 92.392 73.072 91.32 71.904 90.472H75.072Z" fill="#00A5BF"/>
<path d="M59.6198 72.7288L56.5779 71.6641H41.0646C40.4563 71.6641 40 71.2079 40 70.7516V44.1356C40 43.5272 40.4563 43.071 41.0646 43.071H43.346V41.0938C43.346 40.3333 44.1065 39.725 44.8669 40.1812L60.076 46.417L75.2852 40.0291C75.8935 39.877 76.654 40.3333 76.654 41.0938V43.071H78.9354C79.5437 43.071 80 43.5272 80 44.1356V70.7516C80 71.2079 79.5437 71.6641 78.9354 71.6641H63.4221L60.3802 72.7288C60.2281 72.8809 59.924 72.8809 59.6198 72.7288ZM50.7985 69.6869L44.1065 67.4056C43.6502 67.2535 43.346 66.7972 43.346 66.493V45.0482H42.1293V69.6869H50.7985ZM45.4753 65.7326L59.0114 70.2953V48.2421L45.4753 42.6147V65.7326ZM74.6768 42.6147L60.9886 48.2421V70.2953L74.6768 65.7326V42.6147ZM76.654 45.0482V66.493C76.654 66.9493 76.3498 67.2535 75.8935 67.4056L69.3536 69.6869H78.0228V45.0482H76.654Z" fill="#00A5BF"/>
</svg>
